<?xml version="1.0" encoding="utf-8"?>
<!-- Generator: Adobe Illustrator 16.0.0, SVG Export Plug-In . SVG Version: 6.00 Build 0)  -->
<!DOCTYPE svg PUBLIC "-//W3C//DTD SVG 1.1//EN" "http://www.w3.org/Graphics/SVG/1.1/DTD/svg11.dtd">
<svg version="1.1" id="Layer_1" xmlns="http://www.w3.org/2000/svg" xmlns:xlink="http://www.w3.org/1999/xlink" x="0px" y="0px"
	 width="144px" height="144px" viewBox="0 0 144 144" enable-background="new 0 0 144 144" xml:space="preserve">
<g>
	<path fill="none" d="M130.407,136.195c0.016,0,0.032-0.003,0.048-0.003c-0.024,0-0.049,0.001-0.072,0.001
		C130.392,136.193,130.398,136.195,130.407,136.195z"/>
	<path fill="none" d="M131.018,136.168c-0.043,0.004-0.085,0.007-0.126,0.009C130.934,136.175,130.975,136.172,131.018,136.168z"/>
	<path fill="none" d="M123.152,93.741l-0.848,6.454h3.265c-0.57-1.587-1.178-3.223-1.83-4.931
		C123.546,94.755,123.35,94.248,123.152,93.741z"/>
	<path fill="none" d="M119.345,121.635c2.076,1.73,3.915,3.154,5.619,4.355c1.042,0.731,1.978,1.339,2.856,1.855
		c1.064,0.622,1.968,1.068,2.765,1.366c0.286,0.105,0.573,0.194,0.821,0.253c0.033-0.079,0.067-0.17,0.101-0.272
		c0.226-0.69,0.356-1.655,0.379-2.791c0.021-0.979-0.032-2.042-0.161-3.244c-0.208-1.934-0.568-3.989-1.134-6.466
		c-0.437-1.896-0.919-3.711-1.406-5.415h-21.166c2.048,2.001,3.994,3.848,5.869,5.567
		C115.838,118.627,117.624,120.194,119.345,121.635z"/>
	<path fill="none" d="M131.666,130.694c0.001-0.001,0.011-0.009,0.027-0.019C131.678,130.685,131.668,130.692,131.666,130.694z"/>
	<path fill="#818285" d="M125.713,92.85h-1.814c0.257,0.661,0.521,1.345,0.791,2.053c0.626,1.64,1.286,3.409,1.959,5.293h2.68
		c-1.061-2.25-2.087-4.329-3.046-6.224C126.09,93.591,125.899,93.217,125.713,92.85z"/>
	<path fill="#818285" d="M131.581,116.464c0.485,2.126,0.912,4.332,1.154,6.585c0.12,1.124,0.189,2.26,0.167,3.374
		c-0.022,1.104-0.147,2.219-0.43,3.085c-0.139,0.427-0.318,0.776-0.468,0.954c-0.154,0.181-0.231,0.195-0.322,0.224
		c-0.013,0.008-0.019,0.011-0.02,0.011l0.003-0.002c0.002-0.002,0.012-0.01,0.027-0.019c0.021-0.012,0.043-0.024,0.065-0.036
		c0.06-0.027,0.046-0.025,0.065-0.035c0.024-0.013,0.042-0.021,0.051-0.028c0.022-0.013,0.018-0.016-0.013-0.02
		c-0.056-0.005-0.193-0.01-0.364-0.039c-0.343-0.052-0.803-0.181-1.269-0.354c-0.942-0.351-1.943-0.867-2.923-1.442
		c-0.983-0.576-1.96-1.221-2.927-1.898c-1.931-1.359-3.824-2.855-5.686-4.408c-1.86-1.555-3.689-3.171-5.492-4.819
		c-2.254-2.067-4.461-4.185-6.63-6.318h-0.329l0.044-0.28c-1.198-1.181-2.387-2.365-3.558-3.551
		c-3.369-3.427-6.623-6.857-9.731-10.21c-6.188-6.708-11.807-13.097-16.559-18.611c-4.849-5.494-8.936-9.887-11.647-13.145
		c-1.366-1.637-2.437-2.924-3.166-3.801c-0.39-0.458-0.689-0.808-0.891-1.044c-0.246-0.273-11.538-13.667-11.538-13.667
		l-15.223,70.359h24.096l5.899-31.178c0.756,0.723,1.533,1.463,2.333,2.223c5.33,5.042,11.624,10.886,18.546,17.014
		c3.476,3.063,7.112,6.198,10.876,9.327c3.775,3.129,7.678,6.256,11.708,9.275c2.021,1.508,4.073,2.989,6.174,4.419
		c2.104,1.43,4.251,2.81,6.499,4.086c1.127,0.636,2.278,1.246,3.488,1.809c1.216,0.56,2.471,1.08,3.921,1.475
		c0.732,0.191,1.507,0.358,2.454,0.408c0.133,0.007,0.271,0.01,0.412,0.01c0.023,0,0.048-0.001,0.072-0.001
		c0.14-0.001,0.285-0.006,0.437-0.016c0.041-0.002,0.083-0.005,0.126-0.009c0.179-0.014,0.363-0.033,0.56-0.063
		c0.303-0.047,0.634-0.122,0.985-0.235c0.174-0.055,0.356-0.123,0.542-0.203c0.1-0.043,0.169-0.07,0.308-0.141l0.184-0.096
		c0.067-0.035,0.124-0.066,0.129-0.07c0.577-0.342,1.104-0.753,1.572-1.223c0.466-0.469,0.853-0.979,1.157-1.479
		c0.61-1.007,0.909-1.947,1.107-2.8c0.368-1.704,0.341-3.138,0.252-4.494c-0.102-1.351-0.308-2.605-0.557-3.815
		c-0.502-2.413-1.174-4.64-1.889-6.763c-0.409-1.205-0.833-2.372-1.267-3.51h-3.861C130.716,112.951,131.171,114.68,131.581,116.464
		z"/>
	<path fill="#818285" d="M106.572,111.276c-0.096-0.094-0.19-0.188-0.285-0.28l-0.044,0.28H106.572z"/>
	<path fill="#818285" d="M119.301,80.993l-0.252,0.163c0,0,1.033,2.282,2.706,6.354c0.633,1.534,1.356,3.322,2.144,5.34h1.814
		c-1.152-2.253-2.197-4.221-3.088-5.874C120.555,83.136,119.301,80.993,119.301,80.993z"/>
	<path fill="#818285" d="M128.187,104.65c0.694,2.095,1.396,4.308,2.054,6.626h3.861c-1.09-2.861-2.236-5.521-3.353-8.003
		c-0.479-1.062-0.953-2.085-1.421-3.078h-2.68C127.156,101.615,127.671,103.1,128.187,104.65z"/>
	<linearGradient id="SVGID_1_" gradientUnits="userSpaceOnUse" x1="63.1289" y1="32.1782" x2="46.4534" y2="89.3883">
		<stop  offset="0" style="stop-color:#4A2977"/>
		<stop  offset="1" style="stop-color:#673090"/>
	</linearGradient>
	<path fill="url(#SVGID_1_)" d="M22.556,51.447c-1.238-2.973-2.595-6.346-3.964-10.064c-1.365-3.718-2.764-7.784-3.927-12.144
		c-0.577-2.176-1.095-4.433-1.428-6.721c-0.164-1.143-0.279-2.294-0.298-3.419c-0.018-1.113,0.067-2.231,0.324-3.089
		c0.125-0.421,0.294-0.765,0.441-0.935c0.149-0.173,0.229-0.184,0.319-0.208c0.036-0.017,0.019-0.006-0.01,0.01
		c-0.021,0.011-0.043,0.022-0.065,0.033c-0.06,0.025-0.047,0.023-0.065,0.031c-0.024,0.012-0.042,0.02-0.052,0.025
		c-0.021,0.012-0.017,0.015,0.014,0.021c0.058,0.008,0.198,0.022,0.373,0.062c0.353,0.074,0.826,0.231,1.308,0.437
		c0.974,0.411,2.013,0.995,3.034,1.635c1.024,0.643,2.044,1.354,3.056,2.097c2.021,1.491,4.009,3.119,5.968,4.801
		c1.958,1.686,3.888,3.431,5.793,5.208c3.803,3.556,7.507,7.231,11.099,10.902c3.583,3.672,7.05,7.342,10.37,10.924
		c6.614,7.167,12.642,13.979,17.752,19.851c5.214,5.866,9.603,10.565,12.533,14.031c1.477,1.744,2.635,3.113,3.425,4.047
		c0.422,0.488,0.745,0.86,0.962,1.113c0.267,0.293,12.501,14.564,12.501,14.564l12.095-71.245H89.59l-4.602,30.655
		c-0.807-0.777-1.635-1.575-2.487-2.394c-5.674-5.434-12.361-11.735-19.694-18.361c-3.678-3.312-7.52-6.706-11.49-10.102
		c-3.979-3.395-8.085-6.794-12.315-10.093c-2.12-1.648-4.271-3.271-6.468-4.844c-2.2-1.572-4.44-3.099-6.78-4.525
		c-1.172-0.712-2.37-1.399-3.624-2.042c-1.259-0.639-2.558-1.243-4.05-1.728c-0.754-0.238-1.549-0.454-2.516-0.563
		c-0.482-0.052-1.016-0.077-1.634-0.019c-0.307,0.03-0.64,0.084-0.995,0.177c-0.176,0.047-0.359,0.103-0.546,0.172
		c-0.099,0.039-0.168,0.062-0.307,0.124l-0.184,0.085c-0.067,0.032-0.125,0.061-0.128,0.063c-0.576,0.31-1.099,0.692-1.558,1.14
		c-0.458,0.445-0.833,0.935-1.125,1.42c-0.584,0.98-0.856,1.912-1.026,2.76c-0.313,1.698-0.233,3.148-0.091,4.523
		c0.154,1.37,0.411,2.652,0.71,3.887c0.604,2.469,1.373,4.757,2.184,6.945c1.629,4.367,3.434,8.317,5.166,11.917
		c1.734,3.597,3.415,6.83,4.937,9.674c1.521,2.84,2.888,5.29,4.027,7.296c2.278,4.009,3.651,6.252,3.651,6.252l0.25-0.149
		c0,0-1.152-2.371-3.034-6.588C24.918,56.992,23.794,54.42,22.556,51.447z"/>
</g>
</svg>
